<svg width="21" height="20" viewBox="0 0 21 20" fill="none" xmlns="http://www.w3.org/2000/svg">
<g clip-path="url(#clip0_282_4864)" filter="url(#filter0_d_282_4864)">
<path d="M10.5002 3.5C10.5002 2.96957 10.2719 2.46086 9.86556 2.08579C9.45923 1.71071 8.90813 1.5 8.3335 1.5H5.0835V9H8.87516C9.30614 9 9.71947 9.15804 10.0242 9.43934C10.329 9.72064 10.5002 10.1022 10.5002 10.5M10.5002 3.5V10.5M10.5002 3.5C10.5002 2.96957 10.7284 2.46086 11.1348 2.08579C11.5411 1.71071 12.0922 1.5 12.6668 1.5H15.9168V9H12.1252C11.6942 9 11.2809 9.15804 10.9761 9.43934C10.6714 9.72064 10.5002 10.1022 10.5002 10.5M7.25016 4H8.3335M7.25016 6H8.3335M12.6668 4H13.7502M12.6668 6H13.7502" stroke="white" stroke-width="2" stroke-linecap="round" stroke-linejoin="round"/>
</g>
<defs>
<filter id="filter0_d_282_4864" x="0" y="0" width="21" height="20" filterUnits="userSpaceOnUse" color-interpolation-filters="sRGB">
<feFlood flood-opacity="0" result="BackgroundImageFix"/>
<feColorMatrix in="SourceAlpha" type="matrix" values="0 0 0 0 0 0 0 0 0 0 0 0 0 0 0 0 0 0 127 0" result="hardAlpha"/>
<feOffset dy="4"/>
<feGaussianBlur stdDeviation="2"/>
<feComposite in2="hardAlpha" operator="out"/>
<feColorMatrix type="matrix" values="0 0 0 0 0 0 0 0 0 0 0 0 0 0 0 0 0 0 0.25 0"/>
<feBlend mode="normal" in2="BackgroundImageFix" result="effect1_dropShadow_282_4864"/>
<feBlend mode="normal" in="SourceGraphic" in2="effect1_dropShadow_282_4864" result="shape"/>
</filter>
<clipPath id="clip0_282_4864">
<rect width="13" height="12" fill="white" transform="translate(4)"/>
</clipPath>
</defs>
</svg>
