<svg width="70" height="70" viewBox="0 0 70 70" fill="none" xmlns="http://www.w3.org/2000/svg">
<g clip-path="url(#clip0_568_4752)">
<path d="M35 70C54.33 70 70 54.33 70 35C70 15.67 54.33 0 35 0C15.67 0 0 15.67 0 35C0 54.33 15.67 70 35 70Z" fill="#FFE0EB"/>
<mask id="mask0_568_4752" style="mask-type:luminance" maskUnits="userSpaceOnUse" x="20" y="20" width="30" height="30">
<path d="M50 20H20V50H50V20Z" fill="white"/>
</mask>
<g mask="url(#mask0_568_4752)">
<path d="M35.8792 35.8783V20C27.3741 20.4461 20.4471 27.3731 20.001 35.8783H35.8792ZM32.3638 33.2416H30.606V31.4839H32.3638V33.2416ZM27.0905 27.9684H28.8483V29.7262H27.0905V27.9684ZM31.4849 27.6045L32.7277 28.8473L27.9694 33.6056L26.7266 32.3628L31.4849 27.6045Z" fill="#FF82AC"/>
<path d="M35.8791 37.636H25.3662C25.7945 43.2371 30.2781 47.7207 35.8792 48.149L35.8791 37.636Z" fill="#FF82AC"/>
<path d="M37.6367 23.5154C37.6367 23.7042 37.6367 50.2062 37.6367 49.9987C44.4961 49.5431 49.9995 43.6422 49.9995 36.6693C49.9995 29.6958 44.4978 23.9694 37.6367 23.5154ZM42.9099 35.8782C44.3638 35.8782 45.5466 37.0609 45.5466 38.5148C45.5466 39.6591 44.8096 40.6255 43.7888 40.9895V42.9091H42.0311V40.9895C41.0103 40.6255 40.2733 39.6591 40.2733 38.5148H42.0311C42.0311 38.9997 42.425 39.3936 42.9099 39.3936C43.3949 39.3936 43.7888 38.9997 43.7888 38.5148C43.7888 38.0299 43.3949 37.6359 42.9099 37.6359C41.4561 37.6359 40.2733 36.4532 40.2733 34.9993C40.2733 33.855 41.0103 32.8886 42.0311 32.5246V30.6049H43.7888V32.5246C44.8096 32.8886 45.5466 33.855 45.5466 34.9993H43.7888C43.7888 34.5144 43.3949 34.1204 42.9099 34.1204C42.425 34.1204 42.0311 34.5144 42.0311 34.9993C42.0311 35.4842 42.425 35.8782 42.9099 35.8782Z" fill="#FF82AC"/>
</g>
</g>
<defs>
<clipPath id="clip0_568_4752">
<rect width="70" height="70" fill="white"/>
</clipPath>
</defs>
</svg>
