<svg width="13" height="9" viewBox="0 0 13 9" fill="none" xmlns="http://www.w3.org/2000/svg">
<path d="M5.23756 0.242153C5.40449 0.403588 5.48462 0.598656 5.47795 0.827355C5.47071 1.05605 5.38363 1.25112 5.21669 1.41256L2.85875 3.69283L12.1653 3.69282C12.4018 3.69282 12.6002 3.77031 12.7604 3.92529C12.9201 4.07973 13 4.2713 13 4.5C13 4.7287 12.9201 4.92054 12.7604 5.07552C12.6002 5.22996 12.4018 5.30717 12.1653 5.30717L2.85875 5.30718L5.23756 7.60762C5.4045 7.76906 5.48796 7.9609 5.48796 8.18314C5.48796 8.40484 5.4045 8.59641 5.23756 8.75785C5.07063 8.91928 4.87225 9 4.64244 9C4.41318 9 4.21509 8.91928 4.04815 8.75785L0.229537 5.06502C0.14607 4.98431 0.086807 4.89686 0.0517508 4.80269C0.017251 4.70852 5.69681e-07 4.60762 5.60272e-07 4.5C5.50863e-07 4.39238 0.017251 4.29148 0.0517507 4.19731C0.0868069 4.10314 0.146069 4.0157 0.229537 3.93498L4.06902 0.221974C4.22204 0.0739921 4.41318 -2.02991e-07 4.64244 -2.23033e-07C4.87225 -2.43124e-07 5.07063 0.0807179 5.23756 0.242153Z" fill="#4F4F4F"/>
</svg>
