<svg width="49" height="52" viewBox="0 0 49 52" fill="none" xmlns="http://www.w3.org/2000/svg">
<path d="M26.9499 7.8002C26.9499 7.11063 26.6918 6.44931 26.2323 5.96172C25.7728 5.47412 25.1497 5.2002 24.4999 5.2002C23.8501 5.2002 23.227 5.47412 22.7675 5.96172C22.308 6.44931 22.0499 7.11063 22.0499 7.8002V10.4002C22.0499 11.0898 22.308 11.7511 22.7675 12.2387C23.227 12.7263 23.8501 13.0002 24.4999 13.0002C25.1497 13.0002 25.7728 12.7263 26.2323 12.2387C26.6918 11.7511 26.9499 11.0898 26.9499 10.4002V7.8002ZM38.3595 14.9684C38.8058 14.478 39.0528 13.8213 39.0472 13.1396C39.0416 12.4578 38.784 11.8057 38.3297 11.3237C37.8755 10.8416 37.261 10.5682 36.6186 10.5622C35.9762 10.5563 35.3573 10.8184 34.8953 11.292L33.1631 13.1302C32.7168 13.6206 32.4699 14.2773 32.4754 14.959C32.481 15.6407 32.7387 16.2929 33.1929 16.7749C33.6472 17.257 34.2617 17.5304 34.9041 17.5363C35.5465 17.5423 36.1653 17.2802 36.6274 16.8066L38.3595 14.9684ZM44.0999 26.0002C44.0999 26.6898 43.8418 27.3511 43.3823 27.8387C42.9228 28.3263 42.2997 28.6002 41.6499 28.6002H39.1999C38.5501 28.6002 37.927 28.3263 37.4675 27.8387C37.008 27.3511 36.7499 26.6898 36.7499 26.0002C36.7499 25.3106 37.008 24.6493 37.4675 24.1617C37.927 23.6741 38.5501 23.4002 39.1999 23.4002H41.6499C42.2997 23.4002 42.9228 23.6741 43.3823 24.1617C43.8418 24.6493 44.0999 25.3106 44.0999 26.0002ZM12.3724 16.8066C12.5984 17.0549 12.8688 17.253 13.1677 17.3893C13.4666 17.5255 13.7881 17.5972 14.1134 17.6002C14.4387 17.6032 14.7613 17.5375 15.0624 17.4067C15.3635 17.276 15.637 17.0829 15.8671 16.8388C16.0971 16.5947 16.279 16.3044 16.4022 15.9849C16.5254 15.6653 16.5874 15.323 16.5846 14.9778C16.5817 14.6325 16.5142 14.2914 16.3857 13.9741C16.2573 13.6569 16.0707 13.37 15.8367 13.1302L14.1046 11.292C13.6425 10.8184 13.0236 10.5563 12.3812 10.5622C11.7388 10.5682 11.1243 10.8416 10.6701 11.3237C10.2158 11.8057 9.95818 12.4578 9.9526 13.1396C9.94702 13.8213 10.194 14.478 10.6403 14.9684L12.3724 16.8066V16.8066ZM12.2499 26.0002C12.2499 26.6898 11.9918 27.3511 11.5323 27.8387C11.0728 28.3263 10.4497 28.6002 9.7999 28.6002H7.3499C6.70012 28.6002 6.07695 28.3263 5.61749 27.8387C5.15803 27.3511 4.8999 26.6898 4.8999 26.0002C4.8999 25.3106 5.15803 24.6493 5.61749 24.1617C6.07695 23.6741 6.70012 23.4002 7.3499 23.4002H9.7999C10.4497 23.4002 11.0728 23.6741 11.5323 24.1617C11.9918 24.6493 12.2499 25.3106 12.2499 26.0002ZM19.5999 41.6002V39.0002H29.3999V41.6002C29.3999 42.9793 28.8837 44.302 27.9647 45.2771C27.0458 46.2523 25.7995 46.8002 24.4999 46.8002C23.2003 46.8002 21.954 46.2523 21.0351 45.2771C20.1162 44.302 19.5999 42.9793 19.5999 41.6002V41.6002ZM29.3999 36.4002C29.4367 35.5162 29.9095 34.7206 30.5686 34.1668C32.1676 32.8285 33.3341 30.9947 33.9058 28.9204C34.4775 26.8461 34.4261 24.6343 33.7587 22.5924C33.0913 20.5506 31.841 18.7801 30.1817 17.5271C28.5224 16.2741 26.5364 15.6008 24.4999 15.6008C22.4634 15.6008 20.4774 16.2741 18.8181 17.5271C17.1588 18.7801 15.9085 20.5506 15.2411 22.5924C14.5737 24.6343 14.5223 26.8461 15.094 28.9204C15.6657 30.9947 16.8322 32.8285 18.4313 34.1668C19.0928 34.7206 19.5632 35.5162 19.5975 36.4002H29.4024H29.3999Z" fill="#FFCC00"/>
</svg>
