<svg width="12" height="12" viewBox="0 0 12 12" fill="none" xmlns="http://www.w3.org/2000/svg">
<path d="M7.41667 5.08333H10.1957C10.3945 5.08334 10.59 5.13417 10.7637 5.23099C10.9374 5.32781 11.0834 5.46741 11.188 5.63655C11.2925 5.80568 11.3521 5.99872 11.3611 6.19736C11.3701 6.396 11.3281 6.59363 11.2392 6.7715L9.19758 10.8548C9.10067 11.0488 8.95164 11.2119 8.7672 11.3258C8.58276 11.4398 8.37022 11.5001 8.15342 11.5H5.81017C5.71508 11.5 5.62 11.4883 5.52725 11.465L3.33333 10.9167M7.41667 5.08333V2.16667C7.41667 1.85725 7.29375 1.5605 7.07496 1.34171C6.85617 1.12292 6.55942 1 6.25 1H6.19458C5.90292 1 5.66667 1.23625 5.66667 1.52792C5.66667 1.94442 5.54358 2.35158 5.312 2.69808L3.33333 5.66667V10.9167M7.41667 5.08333H6.25M3.33333 10.9167H2.16667C1.85725 10.9167 1.5605 10.7937 1.34171 10.575C1.12292 10.3562 1 10.0594 1 9.75V6.25C1 5.94058 1.12292 5.64383 1.34171 5.42504C1.5605 5.20625 1.85725 5.08333 2.16667 5.08333H3.625" stroke="#004F9F" stroke-linecap="round" stroke-linejoin="round"/>
</svg>
