<svg width="16" height="16" viewBox="0 0 16 16" fill="none" xmlns="http://www.w3.org/2000/svg">
<path d="M4.49998 7.29996L7.29996 1C7.85691 1 8.39105 1.22125 8.78487 1.61507C9.1787 2.0089 9.39995 2.54304 9.39995 3.09999V5.89997H13.3619C13.5649 5.89767 13.7659 5.93952 13.951 6.02262C14.1362 6.10572 14.301 6.22808 14.4342 6.38123C14.5674 6.53437 14.6657 6.71464 14.7223 6.90954C14.7788 7.10444 14.7924 7.30931 14.7619 7.50996L13.7959 13.8099C13.7453 14.1437 13.5757 14.448 13.3185 14.6667C13.0612 14.8854 12.7336 15.0037 12.3959 14.9999H4.49998M4.49998 7.29996V14.9999M4.49998 7.29996H2.39999C2.02869 7.29996 1.6726 7.44746 1.41005 7.71001C1.1475 7.97256 1 8.32865 1 8.69995V13.5999C1 13.9712 1.1475 14.3273 1.41005 14.5899C1.6726 14.8524 2.02869 14.9999 2.39999 14.9999H4.49998" stroke="#C5C5D1" stroke-width="1.39999" stroke-linecap="round" stroke-linejoin="round"/>
</svg>
