<svg width="12" height="10" viewBox="0 0 12 10" fill="none" xmlns="http://www.w3.org/2000/svg">
<path d="M2.40551 0C2.252 0 2.0919 0.0613824 1.97437 0.200554L1.2062 1.1155L1.0377 0.914254C0.803231 0.635911 0.409864 0.635911 0.175399 0.914254C-0.0584664 1.19331 -0.0584664 1.66149 0.175399 1.94055L0.775055 2.65425C1.00952 2.93259 1.40289 2.93259 1.63735 2.65425L2.83666 1.22685C3.07053 0.947789 3.07053 0.47961 2.83666 0.200554C2.71913 0.0613824 2.55903 0 2.40551 0ZM4.80414 0.7137C4.47313 0.7137 4.20448 1.03344 4.20448 1.4274C4.20448 1.82136 4.47313 2.1411 4.80414 2.1411H11.4003C11.7314 2.1411 12 1.82136 12 1.4274C12 1.03344 11.7314 0.7137 11.4003 0.7137H4.80414ZM2.40551 3.5685C2.252 3.5685 2.0919 3.62988 1.97437 3.76905L1.2062 4.684L1.0377 4.48275C0.803231 4.20441 0.409864 4.20441 0.175399 4.48275C-0.0584664 4.76181 -0.0584664 5.22999 0.175399 5.50904L0.775055 6.22274C1.00952 6.50109 1.40289 6.50109 1.63735 6.22274L2.83666 4.79534C3.07053 4.51629 3.07053 4.04811 2.83666 3.76905C2.71913 3.62988 2.55903 3.5685 2.40551 3.5685ZM4.80414 4.2822C4.47313 4.2822 4.20448 4.60194 4.20448 4.9959C4.20448 5.38986 4.47313 5.7096 4.80414 5.7096H11.4003C11.7314 5.7096 12 5.38986 12 4.9959C12 4.60194 11.7314 4.2822 11.4003 4.2822H4.80414ZM2.40551 7.137C2.252 7.137 2.0919 7.19838 1.97437 7.33755L1.2062 8.2525L1.0377 8.05125C0.803231 7.77291 0.409864 7.77291 0.175399 8.05125C-0.0584664 8.33031 -0.0584664 8.79849 0.175399 9.07754L0.775055 9.79124C1.00952 10.0696 1.40289 10.0696 1.63735 9.79124L2.83666 8.36384C3.07053 8.08479 3.07053 7.61661 2.83666 7.33755C2.71913 7.19838 2.55903 7.137 2.40551 7.137ZM4.80414 7.8507C4.47313 7.8507 4.20448 8.17043 4.20448 8.5644C4.20448 8.95836 4.47313 9.2781 4.80414 9.2781H11.4003C11.7314 9.2781 12 8.95836 12 8.5644C12 8.17043 11.7314 7.8507 11.4003 7.8507H4.80414Z" fill="white"/>
</svg>
