<svg width="3" height="12" viewBox="0 0 3 12" fill="none" xmlns="http://www.w3.org/2000/svg">
<path d="M1.5 2.4C2.32843 2.4 3 1.86274 3 1.2C3 0.537258 2.32843 0 1.5 0C0.671573 0 0 0.537258 0 1.2C0 1.86274 0.671573 2.4 1.5 2.4Z" fill="black"/>
<path d="M1.5 7.1998C2.32843 7.1998 3 6.66255 3 5.9998C3 5.33706 2.32843 4.7998 1.5 4.7998C0.671573 4.7998 0 5.33706 0 5.9998C0 6.66255 0.671573 7.1998 1.5 7.1998Z" fill="black"/>
<path d="M1.5 12.0001C2.32843 12.0001 3 11.4628 3 10.8001C3 10.1374 2.32843 9.6001 1.5 9.6001C0.671573 9.6001 0 10.1374 0 10.8001C0 11.4628 0.671573 12.0001 1.5 12.0001Z" fill="black"/>
</svg>
