<svg width="17" height="12" viewBox="0 0 17 12" fill="none" xmlns="http://www.w3.org/2000/svg">
<path fill-rule="evenodd" clip-rule="evenodd" d="M12.0786 8.13568C11.6881 7.74515 11.6881 7.11199 12.0786 6.72146L14.5858 4.21429L12.0786 1.70711C11.6881 1.31658 11.6881 0.683417 12.0786 0.292893C12.4691 -0.0976311 13.1023 -0.0976311 13.4928 0.292893L16.7071 3.50718C17.0976 3.8977 17.0976 4.53087 16.7071 4.92139L13.4928 8.13568C13.1023 8.5262 12.4691 8.5262 12.0786 8.13568Z" fill="#4F4F4F"/>
<path fill-rule="evenodd" clip-rule="evenodd" d="M1.00008 11.6429C0.447794 11.6429 7.82013e-05 11.1952 7.82013e-05 10.6429V9.63843C7.82013e-05 6.1774 2.7516 3.21433 6.25276 3.21433H14.9286C15.4809 3.21433 15.9286 3.66204 15.9286 4.21433C15.9286 4.76661 15.4809 5.21433 14.9286 5.21433H6.25276C3.93038 5.21433 2.00008 7.20627 2.00008 9.63843V10.6429C2.00008 11.1952 1.55236 11.6429 1.00008 11.6429Z" fill="#4F4F4F"/>
</svg>
