<svg width="12" height="13" viewBox="0 0 12 13" fill="none" xmlns="http://www.w3.org/2000/svg">
<path d="M7.79948 0C7.64034 0 7.4767 0.090024 7.36179 0.209168C6.43251 1.17298 6.14796 1.97897 6.48772 3.08304C5.69496 3.74122 5.19426 3.90275 4.20462 3.90275C2.85175 3.90275 1.96844 4.07941 1.36741 4.72999V4.75027C0.805018 5.35918 0.805018 6.33417 1.36741 6.94256L3.04773 8.77684L0.184721 11.8767C-0.0496076 12.1302 -0.0670694 12.5559 0.16726 12.8094C0.401648 13.0635 0.795537 13.0635 1.02993 12.8094L3.90356 9.69593L5.58671 11.5101C6.14916 12.1191 7.04951 12.1191 7.61196 11.5101H7.63074C8.23201 10.8594 8.39956 10.0255 8.39956 8.44469C8.39956 7.43981 8.58996 6.73067 9.16645 5.98448C10.2759 6.33677 10.9214 5.99943 11.8313 5.01423C11.9438 4.89236 12 4.71959 12 4.54728C12 4.31868 11.9467 3.96827 11.8125 3.53225C11.5963 2.8302 11.224 2.12385 10.6311 1.48192C10.0381 0.840049 9.3856 0.437056 8.7371 0.202994C8.33433 0.0576553 8.01065 0 7.79948 0ZM8.03189 1.33548C8.66941 1.46365 9.31131 1.92079 9.76845 2.41576C10.2256 2.91066 10.615 3.51684 10.7761 4.31133C10.2034 4.90646 9.85305 4.95352 9.28022 4.6269C9.05172 4.49658 8.76218 4.54266 8.57958 4.74039C7.48684 5.92338 7.19941 6.99651 7.19941 8.44469C7.19941 9.70568 7.13094 10.1743 6.76807 10.5968C6.66564 10.7164 6.52432 10.6982 6.43059 10.5968L2.21129 6.02933C2.11756 5.92793 2.12044 5.79793 2.19599 5.69848C2.41034 5.41573 2.88739 5.1961 4.19904 5.19688C5.76703 5.19785 6.60059 4.76048 7.63074 3.71496C7.81334 3.51724 7.85871 3.21395 7.74319 2.96383C7.43464 2.29571 7.48276 1.94354 8.03189 1.33548Z" fill="#2A343D"/>
</svg>
