<svg width="17" height="12" viewBox="0 0 17 12" fill="none" xmlns="http://www.w3.org/2000/svg">
<path fill-rule="evenodd" clip-rule="evenodd" d="M4.92139 8.13568C5.31192 7.74515 5.31192 7.11199 4.92139 6.72146L2.41421 4.21429L4.92139 1.70711C5.31192 1.31658 5.31192 0.683417 4.92139 0.292893C4.53087 -0.0976311 3.8977 -0.0976311 3.50718 0.292893L0.292893 3.50718C-0.0976311 3.8977 -0.0976311 4.53087 0.292893 4.92139L3.50718 8.13568C3.8977 8.5262 4.53087 8.5262 4.92139 8.13568Z" fill="#4F4F4F"/>
<path fill-rule="evenodd" clip-rule="evenodd" d="M15.9999 11.6429C16.5522 11.6429 16.9999 11.1952 16.9999 10.6429V9.63843C16.9999 6.1774 14.2484 3.21433 10.7472 3.21433H2.07135C1.51907 3.21433 1.07135 3.66204 1.07135 4.21433C1.07135 4.76661 1.51907 5.21433 2.07135 5.21433H10.7472C13.0696 5.21433 14.9999 7.20627 14.9999 9.63843V10.6429C14.9999 11.1952 15.4476 11.6429 15.9999 11.6429Z" fill="#4F4F4F"/>
</svg>
