<svg width="70" height="70" viewBox="0 0 70 70" fill="none" xmlns="http://www.w3.org/2000/svg">
<circle cx="35" cy="35" r="35" fill="#E7EDFF"/>
<g clip-path="url(#clip0_109_8463)">
<path d="M49.7263 25.8999L44.1015 20.2751C43.8334 20.0069 43.4302 19.9263 43.0796 20.0726C42.729 20.2188 42.5003 20.5582 42.5003 20.9369V23.7493H30.3132C24.6171 23.7493 20.001 28.3654 20.001 34.0615C20.001 34.579 20.421 34.999 20.9384 34.999H24.6883C25.2058 34.999 25.6258 34.579 25.6258 34.0615C25.6258 31.4722 27.7239 29.3742 30.3132 29.3742H42.5003V32.1866C42.5003 32.5653 42.729 32.9084 43.0796 33.0528C43.4302 33.199 43.8334 33.1184 44.1015 32.8503L49.7263 27.2255C50.0919 26.8599 50.0919 26.2655 49.7263 25.8999Z" fill="#396AFF"/>
<path d="M49.0621 34.999H45.3122C44.7947 34.999 44.3747 35.419 44.3747 35.9365C44.3747 38.5258 42.2766 40.6239 39.6874 40.6239H27.5002V37.8114C27.5002 37.4327 27.2715 37.0896 26.9209 36.9452C26.5703 36.8008 26.169 36.8815 25.899 37.1496L20.2742 42.7744C19.9086 43.14 19.9086 43.7344 20.2742 44.1L25.899 49.7249C26.1672 49.993 26.5703 50.0736 26.9209 49.9273C27.2715 49.7811 27.5002 49.4399 27.5002 49.0611V46.2487H39.6874C45.3834 46.2487 49.9995 41.6326 49.9995 35.9365C49.9995 35.419 49.5795 34.999 49.0621 34.999Z" fill="#396AFF"/>
</g>
<defs>
<clipPath id="clip0_109_8463">
<rect width="30" height="30" fill="white" transform="translate(20 20)"/>
</clipPath>
</defs>
</svg>
