<svg width="70" height="70" viewBox="0 0 70 70" fill="none" xmlns="http://www.w3.org/2000/svg">
<circle cx="35" cy="35" r="35" fill="#DCFAF8"/>
<path d="M39.6287 27.6615H42.6806L42.628 25.8025H40.0481L42.4729 20.7913L39.7297 20.5617L37.3203 22.4086L38.1237 20.3201L35.3119 20L34.3897 22.6099L32.8742 20.5892L28.7053 20.4445L31.4638 25.8033L28.9737 25.7233V27.6607H31.3733C26.2555 30.6561 22.5684 38.4857 22.5684 42.7153C22.5684 48.0175 28.3586 51 35.5002 51C42.6418 51 48.432 48.0175 48.432 42.7153C48.4328 38.4857 44.7464 30.6569 39.6287 27.6615ZM36.5816 45.2589V47.0945H34.8172V45.385C33.6113 45.3325 32.441 45.0059 31.7572 44.6115L32.2971 42.5068C33.0528 42.9214 34.1157 43.2981 35.2852 43.2981C36.3108 43.2981 37.0132 42.902 37.0132 42.1835C37.0132 41.4973 36.4377 41.0649 35.1058 40.6163C33.1789 39.9689 31.8655 39.0677 31.8655 37.3234C31.8655 35.7392 32.9817 34.4961 34.9077 34.1195V32.4092H36.6721V33.9934C37.8772 34.0484 38.6887 34.2981 39.2819 34.5867L38.7598 36.6211C38.2918 36.4238 37.4634 36.0084 36.1678 36.0084C34.9975 36.0084 34.6192 36.5119 34.6192 37.0155C34.6192 37.6104 35.2496 37.9878 36.7796 38.5641C38.9206 39.3223 39.7855 40.31 39.7855 41.9313C39.7863 43.5309 38.6515 44.8993 36.5816 45.2589Z" fill="#16DBCC"/>
</svg>
