<svg width="16" height="16" viewBox="0 0 16 16" fill="none" xmlns="http://www.w3.org/2000/svg">
<path fill-rule="evenodd" clip-rule="evenodd" d="M10.4373 10.01H11.1414L15.589 14.4665L14.261 15.7946L9.80442 11.347V10.6428L9.56377 10.3933C8.54767 11.2667 7.22853 11.7926 5.79352 11.7926C2.59371 11.7926 0 9.19889 0 5.99909C0 2.79928 2.59371 0.205566 5.79352 0.205566C8.99333 0.205566 11.587 2.79928 11.587 5.99909C11.587 7.4341 11.0612 8.75324 10.1877 9.76933L10.4373 10.01ZM1.78263 5.9991C1.78263 8.21846 3.57417 10.01 5.79353 10.01C8.0129 10.01 9.80443 8.21846 9.80443 5.9991C9.80443 3.77974 8.0129 1.9882 5.79353 1.9882C3.57417 1.9882 1.78263 3.77974 1.78263 5.9991Z" fill="#64676C"/>
</svg>
