<svg width="14" height="13" viewBox="0 0 14 13" fill="none" xmlns="http://www.w3.org/2000/svg">
<path d="M9.45 0C7.71029 0 6.3 1.4105 6.3 3.15C6.3 4.8895 7.71029 6.3 9.45 6.3C11.1897 6.3 12.6 4.8895 12.6 3.15C12.6 1.4105 11.1897 0 9.45 0ZM4.2 0.7C2.65363 0.7 1.4 1.9537 1.4 3.5C1.4 5.0463 2.65363 6.3 4.2 6.3C4.78058 6.3 5.3305 6.1229 5.79684 5.7967C6.11373 5.5755 6.19332 5.1296 5.97184 4.8125C5.75036 4.4954 5.32623 4.438 5.00934 4.6592C4.77631 4.8223 4.49134 4.9 4.2 4.9C3.42678 4.9 2.8 4.2735 2.8 3.5C2.8 2.7265 3.42678 2.1 4.2 2.1C4.42834 2.1 4.63722 2.1504 4.83434 2.2533C5.17734 2.4318 5.61848 2.31141 5.79684 1.96841C5.97527 1.62611 5.83359 1.18439 5.49066 1.00659C5.09509 0.800792 4.65458 0.7 4.2 0.7ZM9.45 1.4C10.4165 1.4 11.2 2.1833 11.2 3.15C11.2 4.1167 10.4165 4.9 9.45 4.9C8.48351 4.9 7.7 4.1167 7.7 3.15C7.7 2.1833 8.48351 1.4 9.45 1.4ZM2.14375 7.2408C0.85988 7.7707 0 9.0692 0 10.5V11.9C0 12.2864 0.31339 12.6 0.7 12.6H3.5C3.88661 12.6 4.2 12.2864 4.2 11.9C4.2 11.5136 3.88661 11.2 3.5 11.2H1.4V10.5C1.4 9.7132 1.86669 8.99081 2.4031 8.67301C2.90759 8.88581 3.44127 9.04681 3.91587 9.08671C4.30115 9.11961 4.64856 8.82911 4.68125 8.44341C4.71394 8.05841 4.43555 7.73222 4.05034 7.69932C3.74304 7.67342 3.40718 7.581 3.01875 7.4158C2.92495 7.3759 2.87049 7.3444 2.69066 7.2625C2.51433 7.182 2.32281 7.1666 2.14375 7.2408ZM7.04375 7.2408C5.75988 7.7707 4.9 9.0692 4.9 10.5V11.9C4.9 12.2864 5.21339 12.6 5.6 12.6H13.3C13.6866 12.6 14 12.2864 14 11.9V10.5C14 9.1028 13.1354 7.8358 11.8562 7.2842C11.6762 7.2065 11.4664 7.2044 11.2875 7.2842C10.6681 7.5621 10.0647 7.7 9.45 7.7C8.83736 7.7 8.23186 7.5544 7.59066 7.2625C7.41433 7.182 7.22281 7.1666 7.04375 7.2408ZM7.3129 8.67301C7.97426 8.92361 8.77163 9.1 9.45 9.1C10.123 9.1 10.8875 8.93548 11.5354 8.69608C12.1673 9.05588 12.6 9.7293 12.6 10.5V11.2H6.3V10.5C6.3 9.6845 6.75913 8.99711 7.3129 8.67301Z" fill="white"/>
</svg>
